<?xml version="1.0" encoding="UTF-8"?>
<svg width="1000px" height="1000px" viewBox="0 0 1000 1000" xmlns="http://www.w3.org/2000/svg" xmlns:xlink="http://www.w3.org/1999/xlink" version="1.1">
 <!-- Generated by Pixelmator Pro 1.6.4 -->
 <defs>
  <path id="Rounded-Rectangle" d="M315 38 C162.018 38 38 162.018 38 315 L38 685 C38 837.982 162.018 962 315 962 L685 962 C837.982 962 962 837.982 962 685 L962 315 C962 162.018 837.982 38 685 38 Z"/>
 </defs>
 <defs>
  <linearGradient id="linear-gradient" gradientUnits="userSpaceOnUse" x1="418.472" y1="770.392" x2="418.472" y2="201.554">
   <stop offset="0" stop-color="#e1e1e1" stop-opacity="1"/>
   <stop offset="1" stop-color="#ffffff" stop-opacity="1"/>
  </linearGradient>
 </defs>
 <use id="Rounded-Rectangle-1" xlink:href="#Rounded-Rectangle" fill="url(#linear-gradient)" fill-opacity="1" stroke="none"/>
 <defs>
  <linearGradient id="linear-gradient-1" gradientUnits="userSpaceOnUse" x1="420.35" y1="760.474" x2="420.35" y2="218.592">
   <stop offset="0" stop-color="#f4f4f4" stop-opacity="1"/>
   <stop offset="1" stop-color="#ececec" stop-opacity="1"/>
  </linearGradient>
 </defs>
 <defs>
  <path id="stroke-path" d="M860.625 104.703 L844.875 92.469 825.719 79.859 808.25 70.234 787.047 60.656 767.984 53.813 748.469 48.391 728.531 44.453 707.781 41.953 684.875 41 315.063 41 302.719 41.281 288.688 42.266 274.891 43.922 261.375 46.25 248.219 49.203 235.047 52.844 222.422 57.031 209.813 61.922 197.641 67.328 185.922 73.25 174.266 79.859 163.109 86.922 152.438 94.422 141.922 102.578 131.922 111.141 120.141 122.375 111.031 132.047 102.563 141.938 94.406 152.453 86.906 163.125 79.766 174.406 73.234 185.938 67.25 197.781 61.906 209.828 57.016 222.438 52.828 235.063 49.188 248.234 46.203 261.531 43.906 274.906 42.234 288.797 41.266 302.734 41 315 41 684.938 41.266 697.297 41.922 707.75 43.406 721.563 44.984 731.875 47.609 745.188 47.625 745.188 50.063 755.188 53.781 768.016 58.172 780.719 63.141 793.094 71.781 811.328 81.547 828.531 92.438 844.875 104.688 860.641 117.859 875.328 131.969 888.922 147.031 901.516 163.25 913.188 180.016 923.516 197.734 932.734 216.094 940.609 235.016 947.156 254.797 952.375 274.984 956.109 295.656 958.328 315.109 959 690.203 958.953 707.813 958.063 725.078 956.094 741.797 953.109 758.375 949.063 771.344 945.125 786.922 939.422 802.188 932.75 817.125 925.094 828.531 918.438 842.188 909.453 855.375 899.594 868.078 888.859 879.828 877.656 891.156 865.484 901.516 852.938 909.422 842.219 918.516 828.406 926.672 814.234 934.078 799.344 939.344 787.094 944.031 774.547 948.109 761.719 951.578 748.594 953.766 738.5 956.078 725.109 957.734 711.375 958.719 697.281 958.984 686.797 958.859 306.281 957.375 285.172 954.391 264.734 949.969 245 944.016 225.438 936.844 206.922 928.234 188.75 918.422 171.453 905.516 152.359 893.328 137.031 877.5 120.031 Z"/>
 </defs>
 <use id="Rounded-Rectangle-2" stroke="url(#linear-gradient-1)" stroke-opacity="1" stroke-linecap="round" fill="none" stroke-width="6" xlink:href="#stroke-path"/>
 <defs>
  <linearGradient id="linear-gradient-2" gradientUnits="userSpaceOnUse" x1="503.814" y1="226.833" x2="503.814" y2="773.109">
   <stop offset="0" stop-color="#5c5b57" stop-opacity="1"/>
   <stop offset="1" stop-color="#403f3b" stop-opacity="1"/>
  </linearGradient>
 </defs>
 <path id="Plus" d="M438.979 257.614 C438.979 257.614 438.916 227.02 469.287 227.02 499.657 227.02 529.83 227.02 529.83 227.02 529.83 227.02 560.101 227.34 560.101 257.41 560.101 287.481 560.101 439.037 560.101 439.037 L741.728 439.037 C741.728 439.037 772 439.021 772 469.346 772 499.671 772 529.969 772 529.969 772 529.969 772.224 560.24 741.729 560.24 733.372 560.24 559.983 560.24 559.983 560.24 L559.983 741.867 C559.983 741.867 560.164 772.138 529.712 772.138 499.259 772.138 469.287 772.138 469.287 772.138 469.287 772.138 439.016 772.183 439.016 741.867 439.016 711.551 439.016 560.24 439.016 560.24 L257.389 560.24 C257.389 560.24 227 560.261 227 529.732 227 499.203 227 469.19 227 469.19 227 469.19 227.28 439.139 257.417 439.139 287.555 439.139 438.898 439.139 438.898 439.139 L438.979 257.614 Z" fill-opacity="0.676" fill="url(#linear-gradient-2)" stroke="none"/>
</svg>
